<?xml version="1.0" encoding="UTF-8"?><svg id="Layer_2" xmlns="http://www.w3.org/2000/svg" viewBox="0 0 1838.33 1042.68"><defs><style>.cls-1,.cls-2{fill:#fff;}.cls-2,.cls-3{font-family:AvenirNext-HeavyItalic, 'AvenirNext HeavyItalic';font-size:520px;}.cls-4{fill:#39b3f7;}</style></defs><g id="_击前"><g><g><g><path class="cls-4" d="M58.34,481.97c-2.96,0-5.76-1.31-7.66-3.57-1.9-2.26-2.7-5.25-2.19-8.17L113.49,102.07c.84-4.78,5-8.26,9.85-8.26h137.28c49.56,0,88.29,10.69,115.12,31.78,27.55,21.66,41.52,51.78,41.52,89.5,0,24.89-4.23,46.92-12.58,65.46-8.46,18.82-20.98,34.48-37.21,46.56-15.89,11.83-35.26,20.7-57.59,26.37-21.83,5.55-46.98,8.37-74.74,8.37h-27.01l-20.35,111.91c-.86,4.75-5.01,8.21-9.84,8.21H58.34ZM234.62,251.37c14.75,0,26.15-2.33,33.9-6.92,6.32-3.74,9.14-9.11,9.14-17.4,0-9.49-3.33-12.52-6.23-14.1-6.11-3.33-14.99-5.02-26.41-5.02h-9.84l-7.83,43.44h7.27Z"/><path class="cls-4" d="M260.62,103.81c47.49,0,83.8,9.88,108.94,29.64,25.13,19.76,37.7,46.98,37.7,81.64,0,23.58-3.9,44.03-11.7,61.36-7.8,17.34-19.16,31.55-34.06,42.64-14.91,11.1-32.94,19.33-54.08,24.7-21.15,5.38-45.24,8.06-72.28,8.06h-35.36l-21.84,120.12H58.34L123.34,103.81h137.28m-45.24,157.56h19.24c16.64,0,29.64-2.77,39-8.32,9.36-5.54,14.04-14.21,14.04-26,0-11.09-3.82-18.72-11.44-22.88-7.63-4.16-18.03-6.24-31.2-6.24h-18.2l-11.44,63.44m45.24-177.56H123.34c-9.7,0-18.01,6.97-19.7,16.52L38.65,468.49c-1.03,5.82,.57,11.8,4.37,16.33,3.8,4.53,9.41,7.15,15.32,7.15h119.6c9.67,0,17.95-6.91,19.68-16.42l18.85-103.7h18.67c28.59,0,54.57-2.92,77.21-8.68,23.59-5.99,44.15-15.43,61.09-28.04,17.61-13.1,31.18-30.09,40.36-50.48,8.93-19.84,13.46-43.25,13.46-69.56,0-40.95-15.25-73.71-45.34-97.36-14.63-11.5-32.53-20.18-53.2-25.81-19.78-5.38-42.7-8.11-68.1-8.11h0Zm-17.08,134.12h1.48c12.11,0,18.45,2.07,21.63,3.8,.12,.06,.18,.11,.21,.13,.23,.35,.8,1.94,.8,5.19,0,5.82-1.83,7.37-4.23,8.79-3.82,2.27-11.02,4.92-24.1,5.44l4.21-23.35h0Z"/></g><g><path class="cls-4" d="M606.94,491.33c-30.47,0-57.94-4.31-81.64-12.81-23.95-8.59-44.4-20.97-60.77-36.8-16.4-15.84-29.01-34.88-37.47-56.6-8.39-21.5-12.64-45.46-12.64-71.23,0-31.65,5.67-61.77,16.84-89.53,11.19-27.8,27.13-52.34,47.38-72.95,20.26-20.63,45.08-37.12,73.76-49.03,28.65-11.89,60.82-17.92,95.61-17.92,30.81,0,58.45,4.31,82.16,12.81,23.94,8.59,44.39,20.98,60.77,36.8,16.4,15.85,29,34.89,37.47,56.6,8.39,21.54,12.64,45.5,12.64,71.24,0,31.63-5.57,61.73-16.56,89.48-11.02,27.83-26.98,52.4-47.43,73.04-20.44,20.62-45.33,37.1-73.99,49-28.65,11.89-61,17.92-96.13,17.92Zm31.2-277.68c-11.82,0-22.6,2.5-32.02,7.44-9.67,5.07-17.98,11.82-24.71,20.08-6.84,8.4-12.22,18.21-15.98,29.17-3.78,11.04-5.7,22.37-5.7,33.68,0,8.16,1.29,15.85,3.82,22.85,2.46,6.82,6.12,12.83,10.87,17.86,4.72,5,10.71,9.01,17.82,11.9,7.25,2.96,15.86,4.46,25.61,4.46,11.85,0,22.55-2.42,31.81-7.21,9.46-4.88,17.67-11.54,24.4-19.79,6.85-8.41,12.22-18.22,15.97-29.16,3.78-11.03,5.7-22.54,5.7-34.2,0-8.14-1.29-15.83-3.83-22.86-2.47-6.81-6.13-12.82-10.87-17.86-4.71-4.98-10.7-8.99-17.83-11.9-7.26-2.96-15.7-4.46-25.08-4.46Z"/><path class="cls-4" d="M648.02,94.45c29.81,0,56.07,4.08,78.78,12.22,22.7,8.15,41.77,19.68,57.2,34.58,15.42,14.91,27.12,32.59,35.1,53.04,7.97,20.46,11.96,42.99,11.96,67.6,0,30.51-5.29,59.11-15.86,85.8-10.58,26.7-25.66,49.92-45.24,69.68-19.59,19.76-43.16,35.36-70.72,46.8-27.56,11.44-58.33,17.16-92.3,17.16-29.47,0-55.56-4.08-78.26-12.22-22.71-8.14-41.78-19.67-57.2-34.58-15.43-14.9-27.13-32.58-35.1-53.04-7.98-20.45-11.96-42.98-11.96-67.6,0-30.5,5.37-59.1,16.12-85.8,10.74-26.69,25.82-49.92,45.24-69.68,19.41-19.76,42.9-35.36,70.46-46.8,27.56-11.44,58.15-17.16,91.78-17.16m-30.16,276.64c13.52,0,25.65-2.77,36.4-8.32,10.74-5.54,19.93-13,27.56-22.36,7.62-9.36,13.52-20.1,17.68-32.24,4.16-12.13,6.24-24.61,6.24-37.44,0-9.36-1.48-18.11-4.42-26.26-2.95-8.14-7.28-15.25-13-21.32-5.72-6.06-12.83-10.83-21.32-14.3-8.5-3.46-18.12-5.2-28.86-5.2-13.52,0-25.74,2.86-36.66,8.58-10.92,5.72-20.2,13.26-27.82,22.62-7.63,9.36-13.52,20.11-17.68,32.24-4.16,12.14-6.24,24.44-6.24,36.92,0,9.36,1.47,18.12,4.42,26.26,2.94,8.15,7.28,15.26,13,21.32,5.72,6.07,12.82,10.84,21.32,14.3,8.49,3.47,18.28,5.2,29.38,5.2m30.16-296.64c-36.11,0-69.57,6.29-99.45,18.69-29.93,12.42-55.85,29.67-77.06,51.26-21.18,21.56-37.84,47.2-49.53,76.23-11.66,28.95-17.57,60.33-17.57,93.27,0,27.01,4.48,52.2,13.33,74.87,8.98,23.06,22.39,43.3,39.84,60.16,17.4,16.82,39.05,29.95,64.34,39.02,24.78,8.89,53.38,13.39,85.01,13.39,36.46,0,70.09-6.29,99.97-18.69,29.89-12.41,55.88-29.63,77.26-51.19,21.41-21.6,38.1-47.3,49.63-76.39,11.46-28.93,17.27-60.27,17.27-93.17,0-26.98-4.48-52.17-13.32-74.86-9-23.06-22.4-43.3-39.83-60.16-17.42-16.82-39.07-29.95-64.34-39.02-24.8-8.89-53.58-13.4-85.54-13.4h0Zm-30.16,276.64c-8.44,0-15.78-1.25-21.81-3.71-5.88-2.39-10.56-5.5-14.33-9.5-3.87-4.1-6.73-8.8-8.74-14.39-2.15-5.93-3.23-12.47-3.23-19.47,0-10.21,1.74-20.45,5.16-30.44,3.37-9.84,8.17-18.62,14.26-26.09,5.95-7.31,13.01-13.04,21.6-17.54,8.09-4.24,17.05-6.3,27.38-6.3,8.08,0,15.25,1.25,21.32,3.72,5.85,2.39,10.54,5.5,14.32,9.5,3.85,4.08,6.71,8.8,8.74,14.4,2.14,5.92,3.22,12.47,3.22,19.45,0,10.56-1.74,20.97-5.16,30.95-3.37,9.83-8.17,18.6-14.27,26.1-5.93,7.27-12.87,12.91-21.22,17.21-7.95,4.1-16.85,6.09-27.23,6.09h0Z"/></g><g><path class="cls-4" d="M1040.09,491.33c-30.47,0-57.94-4.31-81.64-12.81-23.95-8.59-44.4-20.97-60.77-36.8-16.4-15.84-29.01-34.88-37.47-56.6-8.39-21.5-12.64-45.46-12.64-71.23,0-31.65,5.67-61.77,16.84-89.53,11.19-27.8,27.13-52.34,47.38-72.95,20.26-20.63,45.08-37.12,73.76-49.03,28.65-11.89,60.82-17.92,95.61-17.92,30.81,0,58.45,4.31,82.16,12.81,23.94,8.59,44.39,20.98,60.77,36.8,16.4,15.85,29,34.89,37.47,56.6,8.39,21.54,12.64,45.5,12.64,71.24,0,31.63-5.57,61.73-16.56,89.48-11.02,27.83-26.98,52.4-47.43,73.04-20.44,20.62-45.33,37.1-73.99,49-28.65,11.89-61,17.92-96.13,17.92Zm31.2-277.68c-11.82,0-22.6,2.5-32.02,7.44-9.67,5.07-17.98,11.82-24.71,20.08-6.84,8.4-12.22,18.21-15.98,29.17-3.78,11.04-5.7,22.37-5.7,33.68,0,8.16,1.29,15.85,3.82,22.85,2.46,6.82,6.12,12.83,10.87,17.86,4.72,5,10.71,9.01,17.82,11.9,7.25,2.96,15.86,4.46,25.61,4.46,11.85,0,22.55-2.42,31.81-7.21,9.46-4.88,17.67-11.54,24.4-19.79,6.85-8.41,12.22-18.22,15.97-29.16,3.78-11.03,5.7-22.54,5.7-34.2,0-8.14-1.29-15.83-3.83-22.86-2.47-6.81-6.13-12.82-10.87-17.86-4.71-4.98-10.7-8.99-17.83-11.9-7.26-2.96-15.7-4.46-25.08-4.46Z"/><path class="cls-4" d="M1081.17,94.45c29.81,0,56.07,4.08,78.78,12.22,22.7,8.15,41.77,19.68,57.2,34.58,15.42,14.91,27.12,32.59,35.1,53.04,7.97,20.46,11.96,42.99,11.96,67.6,0,30.51-5.29,59.11-15.86,85.8-10.58,26.7-25.66,49.92-45.24,69.68-19.59,19.76-43.16,35.36-70.72,46.8-27.56,11.44-58.33,17.16-92.3,17.16-29.47,0-55.56-4.08-78.26-12.22-22.71-8.14-41.78-19.67-57.2-34.58-15.43-14.9-27.13-32.58-35.1-53.04-7.98-20.45-11.96-42.98-11.96-67.6,0-30.5,5.37-59.1,16.12-85.8,10.74-26.69,25.82-49.92,45.24-69.68,19.41-19.76,42.9-35.36,70.46-46.8,27.56-11.44,58.15-17.16,91.78-17.16m-30.16,276.64c13.52,0,25.65-2.77,36.4-8.32,10.74-5.54,19.93-13,27.56-22.36,7.62-9.36,13.52-20.1,17.68-32.24,4.16-12.13,6.24-24.61,6.24-37.44,0-9.36-1.48-18.11-4.42-26.26-2.95-8.14-7.28-15.25-13-21.32-5.72-6.06-12.83-10.83-21.32-14.3-8.5-3.46-18.12-5.2-28.86-5.2-13.52,0-25.74,2.86-36.66,8.58-10.92,5.72-20.2,13.26-27.82,22.62-7.63,9.36-13.52,20.11-17.68,32.24-4.16,12.14-6.24,24.44-6.24,36.92,0,9.36,1.47,18.12,4.42,26.26,2.94,8.15,7.28,15.26,13,21.32,5.72,6.07,12.82,10.84,21.32,14.3,8.49,3.47,18.28,5.2,29.38,5.2m30.16-296.64c-36.11,0-69.57,6.29-99.45,18.69-29.93,12.42-55.85,29.67-77.06,51.26-21.18,21.56-37.84,47.2-49.53,76.23-11.66,28.95-17.57,60.33-17.57,93.27,0,27.01,4.48,52.2,13.33,74.87,8.98,23.06,22.39,43.3,39.84,60.16,17.4,16.82,39.05,29.95,64.34,39.02,24.78,8.89,53.38,13.39,85.01,13.39,36.46,0,70.09-6.29,99.97-18.69,29.89-12.41,55.88-29.63,77.26-51.19,21.41-21.6,38.1-47.3,49.63-76.39,11.46-28.93,17.27-60.27,17.27-93.17,0-26.98-4.48-52.17-13.32-74.86-9-23.06-22.4-43.3-39.83-60.16-17.42-16.82-39.07-29.95-64.34-39.02-24.8-8.89-53.58-13.4-85.54-13.4h0Zm-30.16,276.64c-8.44,0-15.78-1.25-21.81-3.71-5.88-2.39-10.56-5.5-14.33-9.5-3.87-4.1-6.73-8.8-8.74-14.39-2.15-5.93-3.23-12.47-3.23-19.47,0-10.21,1.74-20.45,5.16-30.44,3.37-9.84,8.17-18.62,14.26-26.09,5.95-7.31,13.01-13.04,21.6-17.54,8.09-4.24,17.05-6.3,27.38-6.3,8.08,0,15.25,1.25,21.32,3.72,5.85,2.39,10.54,5.5,14.32,9.5,3.85,4.08,6.71,8.8,8.74,14.4,2.14,5.92,3.22,12.47,3.22,19.45,0,10.56-1.74,20.97-5.16,30.95-3.37,9.83-8.17,18.6-14.27,26.1-5.93,7.27-12.87,12.91-21.22,17.21-7.95,4.1-16.85,6.09-27.23,6.09h0Z"/></g><g><path class="cls-4" d="M1278.25,481.97c-2.96,0-5.76-1.31-7.66-3.57-1.9-2.26-2.7-5.25-2.19-8.17l65-368.16c.84-4.78,5-8.26,9.85-8.26h137.28c49.56,0,88.29,10.69,115.12,31.78,27.55,21.66,41.52,51.78,41.52,89.5,0,24.89-4.23,46.92-12.58,65.46-8.47,18.82-20.99,34.48-37.21,46.56-15.89,11.83-35.26,20.7-57.59,26.37-21.83,5.55-46.98,8.37-74.74,8.37h-27.01l-20.35,111.91c-.86,4.75-5.01,8.21-9.84,8.21h-119.6Zm176.28-230.6c14.75,0,26.15-2.33,33.9-6.92,6.32-3.74,9.14-9.11,9.14-17.4,0-9.49-3.33-12.52-6.23-14.1-6.11-3.33-14.99-5.02-26.41-5.02h-9.84l-7.83,43.44h7.27Z"/><path class="cls-4" d="M1480.53,103.81c47.49,0,83.8,9.88,108.94,29.64,25.13,19.76,37.7,46.98,37.7,81.64,0,23.58-3.9,44.03-11.7,61.36-7.8,17.34-19.16,31.55-34.06,42.64-14.91,11.1-32.94,19.33-54.08,24.7-21.15,5.38-45.24,8.06-72.28,8.06h-35.36l-21.84,120.12h-119.6l65-368.16h137.28m-45.24,157.56h19.24c16.64,0,29.64-2.77,39-8.32,9.36-5.54,14.04-14.21,14.04-26,0-11.09-3.82-18.72-11.44-22.88-7.63-4.16-18.03-6.24-31.2-6.24h-18.2l-11.44,63.44m45.24-177.56h-137.28c-9.7,0-18.01,6.97-19.7,16.52l-65,368.16c-1.03,5.82,.57,11.8,4.37,16.33,3.8,4.53,9.41,7.15,15.32,7.15h119.6c9.67,0,17.95-6.91,19.68-16.42l18.85-103.7h18.67c28.59,0,54.57-2.92,77.21-8.68,23.59-5.99,44.15-15.43,61.09-28.04,17.6-13.1,31.18-30.09,40.36-50.48,8.93-19.84,13.46-43.25,13.46-69.57,0-40.95-15.25-73.71-45.34-97.36-14.63-11.5-32.53-20.18-53.2-25.81-19.78-5.38-42.7-8.11-68.1-8.11h0Zm-17.08,134.12h1.48c12.12,0,18.45,2.07,21.63,3.8,.12,.06,.18,.11,.21,.13,.23,.35,.8,1.94,.8,5.19,0,5.82-1.83,7.37-4.23,8.79-3.82,2.27-11.02,4.92-24.1,5.44l4.21-23.35h0Z"/></g></g><g><g><path class="cls-4" d="M840.22,976.51c-2.96,0-5.76-1.31-7.66-3.57-1.9-2.26-2.7-5.25-2.19-8.17l65-368.16c.84-4.78,5-8.26,9.85-8.26h168.48c13.47,0,27.13,1.48,40.6,4.4,13.87,3.01,26.64,8.07,37.97,15.07,11.66,7.2,21.22,16.69,28.44,28.2,7.4,11.82,11.15,26.32,11.15,43.08,0,27.76-7.94,50.76-23.59,68.37-9.62,10.83-20.94,19.59-33.82,26.18,.53,.28,1.05,.57,1.57,.86,8.48,4.73,16.05,11,22.52,18.62,6.45,7.62,11.59,16.58,15.28,26.66,3.68,10.08,5.55,21.19,5.55,33.03,0,20.31-4.35,38.52-12.94,54.14-8.53,15.52-20.61,28.65-35.91,39.03-14.95,10.14-32.91,17.87-53.37,22.97-20.12,5.02-42.28,7.56-65.86,7.56h-171.08Zm159.12-113.6c6.11,0,12.12-.41,17.86-1.2,5.19-.72,9.69-1.99,13.41-3.78,3.14-1.51,5.53-3.49,7.32-6.07,1.57-2.26,2.37-5.49,2.37-9.62,0-4.71-1.52-7.78-5.07-10.25-4.44-3.08-11.82-4.71-21.33-4.71h-26.98l-6.33,35.64h18.75Zm25.48-130.52c4,0,8.14-.32,12.3-.94,3.51-.52,6.59-1.53,9.39-3.08,2.39-1.32,4.3-3.09,5.85-5.42,1.29-1.96,1.98-5.06,1.98-8.94,0-5.1-1.76-7.11-4.41-8.55-4.9-2.68-11.6-4.03-19.91-4.03h-21.66l-5.06,30.96h21.52Z"/><path class="cls-4" d="M1073.7,598.35c12.82,0,25.65,1.39,38.48,4.17,12.82,2.78,24.44,7.38,34.84,13.8,10.4,6.43,18.8,14.76,25.22,25,6.41,10.25,9.62,22.83,9.62,37.76,0,25.35-7.02,45.93-21.06,61.73-14.04,15.8-31.81,26.66-53.3,32.56v1.04c8.32,1.73,16.2,4.67,23.66,8.82,7.45,4.16,14.04,9.61,19.76,16.36,5.72,6.75,10.22,14.62,13.52,23.63,3.29,9,4.94,18.87,4.94,29.59,0,18.69-3.9,35.13-11.7,49.32-7.8,14.19-18.72,26.05-32.76,35.57-14.04,9.52-30.77,16.7-50.18,21.55-19.42,4.84-40.56,7.26-63.44,7.26h-171.08l65-368.16h168.48m-82.16,144.04h33.28c4.5,0,9.1-.35,13.78-1.05,4.68-.7,8.92-2.1,12.74-4.21,3.81-2.1,6.93-4.99,9.36-8.66,2.42-3.67,3.64-8.49,3.64-14.45,0-8.05-3.21-13.83-9.62-17.33-6.42-3.5-14.65-5.26-24.7-5.26h-30.16l-8.32,50.96m-22.88,130.52h30.68c6.58,0,13-.43,19.24-1.3,6.24-.86,11.7-2.42,16.38-4.68,4.68-2.25,8.4-5.37,11.18-9.36,2.77-3.98,4.16-9.1,4.16-15.34,0-7.97-3.12-14.12-9.36-18.46-6.24-4.33-15.26-6.5-27.04-6.5h-35.36l-9.88,55.64m105.04-294.56h-168.48c-9.7,0-18.01,6.97-19.7,16.52l-65,368.16c-1.03,5.82,.57,11.8,4.37,16.33,3.8,4.53,9.41,7.15,15.32,7.15h171.08c24.4,0,47.37-2.64,68.28-7.86,21.61-5.39,40.64-13.6,56.57-24.4,16.62-11.27,29.76-25.57,39.06-42.49,9.4-17.1,14.17-36.94,14.17-58.95,0-13.02-2.07-25.29-6.16-36.46-4.1-11.19-9.83-21.18-17.04-29.69-3.96-4.67-8.29-8.88-12.95-12.61,8.24-5.69,15.76-12.35,22.52-19.96,17.32-19.49,26.11-44.73,26.11-75.01,0-18.67-4.26-34.94-12.66-48.37-8.05-12.83-18.7-23.4-31.66-31.41-12.31-7.6-26.14-13.09-41.12-16.34-14.16-3.07-28.53-4.62-42.72-4.62h0Zm-56.84,133.08h13.16c6.02,0,10.94,.83,14.32,2.41,0,.06,0,.12,0,.18,0,2.28-.33,3.32-.41,3.56-.61,.89-1.31,1.53-2.22,2.03-1.76,.97-3.74,1.61-6.05,1.95-3.68,.55-7.32,.83-10.83,.83h-9.75l1.79-10.96h0Zm-21.56,125.84h18.6c10.3,0,14.37,2.05,15.64,2.93,.43,.3,.59,.49,.6,.51h0s.16,.43,.16,1.52c0,2.94-.57,3.91-.58,3.92-.54,.77-1.42,1.79-3.43,2.75-2.8,1.35-6.31,2.32-10.45,2.89-5.31,.74-10.85,1.11-16.51,1.11h-6.82l2.78-15.64h0Z"/></g><g><path class="cls-4" d="M1394.01,985.87c-30.47,0-57.94-4.31-81.64-12.81-23.95-8.58-44.39-20.97-60.77-36.8-16.4-15.84-29-34.88-37.47-56.6-8.39-21.5-12.64-45.47-12.64-71.23,0-31.65,5.67-61.78,16.84-89.53,11.19-27.8,27.13-52.35,47.38-72.95,20.26-20.63,45.08-37.12,73.76-49.03,28.65-11.89,60.82-17.92,95.62-17.92,30.81,0,58.45,4.31,82.15,12.81,23.94,8.59,44.39,20.98,60.77,36.8,16.4,15.85,29,34.89,37.47,56.6,8.39,21.54,12.64,45.5,12.64,71.23,0,31.63-5.57,61.73-16.56,89.48-11.03,27.83-26.99,52.4-47.43,73.04-20.44,20.62-45.33,37.1-73.99,49-28.65,11.89-61,17.92-96.13,17.92Zm31.2-277.68c-11.83,0-22.6,2.5-32.02,7.44-9.67,5.07-17.98,11.82-24.71,20.08-6.84,8.39-12.21,18.21-15.97,29.17-3.78,11.03-5.7,22.37-5.7,33.68,0,8.16,1.29,15.85,3.82,22.85,2.46,6.82,6.12,12.82,10.87,17.86,4.72,5,10.71,9.01,17.82,11.9,7.25,2.96,15.86,4.46,25.61,4.46,11.85,0,22.55-2.42,31.81-7.21,9.46-4.88,17.67-11.54,24.4-19.79,6.85-8.41,12.22-18.22,15.97-29.16,3.78-11.03,5.7-22.54,5.7-34.2,0-8.14-1.29-15.83-3.83-22.86-2.47-6.81-6.13-12.82-10.87-17.86-4.71-4.99-10.7-8.99-17.83-11.9-7.26-2.96-15.7-4.46-25.08-4.46Z"/><path class="cls-4" d="M1435.09,588.99c29.81,0,56.07,4.08,78.78,12.22,22.7,8.15,41.77,19.68,57.2,34.58,15.42,14.91,27.12,32.59,35.1,53.04,7.97,20.46,11.96,42.99,11.96,67.6,0,30.51-5.29,59.11-15.86,85.8-10.58,26.7-25.66,49.92-45.24,69.68-19.59,19.76-43.16,35.36-70.72,46.8-27.56,11.44-58.33,17.16-92.3,17.16-29.47,0-55.56-4.08-78.26-12.22-22.71-8.14-41.78-19.67-57.2-34.58-15.43-14.9-27.13-32.58-35.1-53.04-7.98-20.45-11.96-42.98-11.96-67.6,0-30.5,5.37-59.1,16.12-85.8,10.74-26.69,25.82-49.92,45.24-69.68,19.41-19.76,42.9-35.36,70.46-46.8,27.56-11.44,58.15-17.16,91.78-17.16m-30.16,276.64c13.52,0,25.65-2.77,36.4-8.32,10.74-5.54,19.93-13,27.56-22.36,7.62-9.36,13.52-20.1,17.68-32.24,4.16-12.13,6.24-24.61,6.24-37.44,0-9.36-1.48-18.11-4.42-26.26-2.95-8.14-7.28-15.25-13-21.32-5.72-6.06-12.83-10.83-21.32-14.3-8.5-3.46-18.12-5.2-28.86-5.2-13.52,0-25.74,2.86-36.66,8.58-10.92,5.72-20.2,13.26-27.82,22.62-7.63,9.36-13.52,20.11-17.68,32.24-4.16,12.14-6.24,24.44-6.24,36.92,0,9.36,1.47,18.12,4.42,26.26,2.94,8.15,7.28,15.26,13,21.32,5.72,6.07,12.82,10.84,21.32,14.3,8.49,3.47,18.28,5.2,29.38,5.2m30.16-296.64c-36.12,0-69.58,6.29-99.45,18.69-29.92,12.42-55.85,29.67-77.06,51.26-21.18,21.55-37.84,47.2-49.53,76.23-11.66,28.95-17.57,60.33-17.57,93.27,0,27.01,4.48,52.2,13.33,74.87,8.99,23.06,22.39,43.31,39.84,60.16,17.4,16.82,39.05,29.95,64.34,39.02,24.78,8.89,53.38,13.39,85.01,13.39,36.46,0,70.09-6.29,99.97-18.69,29.89-12.41,55.88-29.63,77.26-51.19,21.41-21.6,38.1-47.3,49.63-76.39,11.46-28.93,17.27-60.28,17.27-93.17,0-26.98-4.48-52.17-13.32-74.86-9-23.07-22.4-43.3-39.83-60.16-17.42-16.82-39.06-29.95-64.34-39.03-24.8-8.89-53.57-13.4-85.54-13.4h0Zm-30.16,276.64c-8.45,0-15.78-1.25-21.81-3.71-5.88-2.39-10.56-5.5-14.33-9.5-3.87-4.1-6.73-8.81-8.74-14.39-2.15-5.93-3.23-12.47-3.23-19.47,0-10.21,1.74-20.45,5.16-30.44,3.37-9.84,8.17-18.62,14.26-26.09,5.95-7.31,13.01-13.04,21.6-17.54,8.09-4.24,17.04-6.3,27.38-6.3,8.08,0,15.25,1.25,21.32,3.72,5.85,2.39,10.54,5.5,14.32,9.5,3.85,4.08,6.71,8.8,8.74,14.41,2.14,5.92,3.22,12.47,3.22,19.45,0,10.56-1.74,20.97-5.16,30.95-3.37,9.82-8.17,18.6-14.27,26.1-5.93,7.27-12.87,12.91-21.22,17.21-7.95,4.1-16.85,6.09-27.23,6.09h0Z"/></g><g><path class="cls-4" d="M1632.17,976.51c-2.96,0-5.76-1.31-7.66-3.57-1.9-2.26-2.7-5.25-2.19-8.17l65-368.16c.84-4.78,5-8.26,9.85-8.26h121.16c2.96,0,5.76,1.31,7.66,3.57,1.9,2.26,2.7,5.25,2.19,8.17l-65,368.16c-.84,4.78-5,8.26-9.85,8.26h-121.16Z"/><path class="cls-4" d="M1818.33,598.35l-65,368.16h-121.16l65-368.16h121.16m0-20h-121.16c-9.7,0-18.01,6.97-19.7,16.52l-65,368.16c-1.03,5.82,.57,11.8,4.37,16.33,3.8,4.53,9.41,7.15,15.32,7.15h121.16c9.7,0,18.01-6.97,19.7-16.52l65-368.16c1.03-5.82-.57-11.8-4.37-16.33-3.8-4.53-9.41-7.15-15.32-7.15h0Z"/></g></g></g><text class="cls-3" transform="translate(0 435.24)"><tspan x="0" y="0">POOP</tspan></text><g><path class="cls-1" d="M230.3,49.98c47.49,0,83.8,9.88,108.94,29.64,25.13,19.76,37.7,46.98,37.7,81.64,0,23.58-3.9,44.03-11.7,61.36-7.8,17.34-19.16,31.55-34.06,42.64-14.91,11.1-32.94,19.33-54.08,24.7-21.15,5.38-45.24,8.06-72.28,8.06h-35.36l-21.84,120.12H28.02L93.02,49.98H230.3m-45.24,157.56h19.24c16.64,0,29.64-2.77,39-8.32,9.36-5.54,14.04-14.21,14.04-26,0-11.09-3.82-18.72-11.44-22.88-7.63-4.16-18.03-6.24-31.2-6.24h-18.2l-11.44,63.44M230.3,29.98H93.02c-9.7,0-18.01,6.97-19.7,16.52L8.32,414.66c-1.03,5.82,.57,11.8,4.37,16.33s9.41,7.15,15.32,7.15h119.6c9.67,0,17.95-6.91,19.68-16.42l18.85-103.7h18.67c28.59,0,54.57-2.92,77.21-8.68,23.59-5.99,44.15-15.43,61.09-28.04,17.61-13.1,31.18-30.09,40.36-50.48,8.93-19.84,13.46-43.25,13.46-69.56,0-40.95-15.25-73.71-45.34-97.36-14.63-11.5-32.53-20.18-53.2-25.81-19.78-5.38-42.7-8.11-68.1-8.11h0Zm-17.08,134.12h1.48c12.11,0,18.45,2.07,21.63,3.8,.12,.06,.18,.11,.21,.13,.23,.35,.8,1.94,.8,5.19,0,5.82-1.83,7.37-4.23,8.79-3.82,2.27-11.02,4.92-24.1,5.44l4.21-23.35h0Z"/><path class="cls-1" d="M617.69,40.62c29.81,0,56.07,4.08,78.78,12.22,22.7,8.15,41.77,19.68,57.2,34.58,15.42,14.91,27.12,32.59,35.1,53.04,7.97,20.46,11.96,42.99,11.96,67.6,0,30.51-5.29,59.11-15.86,85.8-10.58,26.7-25.66,49.92-45.24,69.68-19.59,19.76-43.16,35.36-70.72,46.8-27.56,11.44-58.33,17.16-92.3,17.16-29.47,0-55.56-4.08-78.26-12.22-22.71-8.14-41.78-19.67-57.2-34.58-15.43-14.9-27.13-32.58-35.1-53.04-7.98-20.45-11.96-42.98-11.96-67.6,0-30.5,5.37-59.1,16.12-85.8,10.74-26.69,25.82-49.92,45.24-69.68,19.41-19.76,42.9-35.36,70.46-46.8,27.56-11.44,58.15-17.16,91.78-17.16m-30.16,276.64c13.52,0,25.65-2.77,36.4-8.32,10.74-5.54,19.93-13,27.56-22.36,7.62-9.36,13.52-20.1,17.68-32.24,4.16-12.13,6.24-24.61,6.24-37.44,0-9.36-1.48-18.11-4.42-26.26-2.95-8.14-7.28-15.25-13-21.32-5.72-6.06-12.83-10.83-21.32-14.3-8.5-3.46-18.12-5.2-28.86-5.2-13.52,0-25.74,2.86-36.66,8.58-10.92,5.72-20.2,13.26-27.82,22.62-7.63,9.36-13.52,20.11-17.68,32.24-4.16,12.14-6.24,24.44-6.24,36.92,0,9.36,1.47,18.12,4.42,26.26,2.94,8.15,7.28,15.26,13,21.32,5.72,6.07,12.82,10.84,21.32,14.3,8.49,3.47,18.28,5.2,29.38,5.2m30.16-296.64c-36.11,0-69.57,6.29-99.45,18.69-29.93,12.42-55.85,29.67-77.06,51.26-21.18,21.56-37.84,47.2-49.53,76.23-11.66,28.95-17.57,60.33-17.57,93.27,0,27.01,4.48,52.2,13.33,74.87,8.98,23.06,22.39,43.3,39.84,60.16,17.4,16.82,39.05,29.95,64.34,39.02,24.78,8.89,53.38,13.39,85.01,13.39,36.46,0,70.09-6.29,99.97-18.69,29.89-12.41,55.88-29.63,77.26-51.19,21.41-21.6,38.1-47.3,49.63-76.39,11.46-28.93,17.27-60.27,17.27-93.17,0-26.98-4.48-52.17-13.32-74.86-9-23.06-22.4-43.3-39.83-60.16-17.42-16.82-39.07-29.95-64.35-39.02-24.8-8.89-53.58-13.4-85.54-13.4h0Zm-30.16,276.64c-8.44,0-15.78-1.25-21.81-3.71-5.88-2.39-10.56-5.5-14.33-9.5-3.87-4.1-6.73-8.8-8.74-14.39-2.15-5.93-3.23-12.47-3.23-19.47,0-10.21,1.74-20.45,5.16-30.44,3.37-9.84,8.17-18.62,14.26-26.09,5.95-7.31,13.01-13.04,21.6-17.54,8.09-4.24,17.05-6.3,27.38-6.3,8.08,0,15.25,1.25,21.32,3.72,5.85,2.39,10.54,5.5,14.32,9.5,3.85,4.08,6.71,8.8,8.74,14.4,2.14,5.92,3.22,12.47,3.22,19.45,0,10.56-1.74,20.97-5.16,30.95-3.37,9.83-8.17,18.6-14.27,26.1-5.93,7.27-12.87,12.91-21.22,17.21-7.95,4.1-16.85,6.09-27.23,6.09h0Z"/><path class="cls-1" d="M1050.85,40.62c29.81,0,56.07,4.08,78.78,12.22,22.7,8.15,41.77,19.68,57.2,34.58,15.42,14.91,27.12,32.59,35.1,53.04,7.97,20.46,11.96,42.99,11.96,67.6,0,30.51-5.29,59.11-15.86,85.8-10.58,26.7-25.66,49.92-45.24,69.68-19.59,19.76-43.16,35.36-70.72,46.8-27.56,11.44-58.33,17.16-92.3,17.16-29.47,0-55.56-4.08-78.26-12.22-22.71-8.14-41.78-19.67-57.2-34.58-15.43-14.9-27.13-32.58-35.1-53.04-7.98-20.45-11.96-42.98-11.96-67.6,0-30.5,5.37-59.1,16.12-85.8,10.74-26.69,25.82-49.92,45.24-69.68,19.41-19.76,42.9-35.36,70.46-46.8,27.56-11.44,58.15-17.16,91.78-17.16m-30.16,276.64c13.52,0,25.65-2.77,36.4-8.32,10.74-5.54,19.93-13,27.56-22.36,7.62-9.36,13.52-20.1,17.68-32.24,4.16-12.13,6.24-24.61,6.24-37.44,0-9.36-1.48-18.11-4.42-26.26-2.95-8.14-7.28-15.25-13-21.32-5.72-6.06-12.83-10.83-21.32-14.3-8.5-3.46-18.12-5.2-28.86-5.2-13.52,0-25.74,2.86-36.66,8.58-10.92,5.72-20.2,13.26-27.82,22.62-7.63,9.36-13.52,20.11-17.68,32.24-4.16,12.14-6.24,24.44-6.24,36.92,0,9.36,1.47,18.12,4.42,26.26,2.94,8.15,7.28,15.26,13,21.32,5.72,6.07,12.82,10.84,21.32,14.3,8.49,3.47,18.28,5.2,29.38,5.2m30.16-296.64c-36.11,0-69.57,6.29-99.45,18.69-29.93,12.42-55.85,29.67-77.06,51.26-21.18,21.56-37.84,47.2-49.53,76.23-11.66,28.95-17.57,60.33-17.57,93.27,0,27.01,4.48,52.2,13.33,74.87,8.98,23.06,22.39,43.3,39.84,60.16,17.4,16.82,39.05,29.95,64.34,39.02,24.78,8.89,53.38,13.39,85.01,13.39,36.46,0,70.09-6.29,99.97-18.69,29.89-12.41,55.88-29.63,77.26-51.19,21.41-21.6,38.1-47.3,49.63-76.39,11.46-28.93,17.27-60.27,17.27-93.17,0-26.98-4.48-52.17-13.32-74.86-9-23.06-22.4-43.3-39.83-60.16-17.42-16.82-39.07-29.95-64.35-39.02-24.8-8.89-53.58-13.4-85.54-13.4h0Zm-30.16,276.64c-8.44,0-15.78-1.25-21.81-3.71-5.88-2.39-10.56-5.5-14.33-9.5-3.87-4.1-6.73-8.8-8.74-14.39-2.15-5.93-3.23-12.47-3.23-19.47,0-10.21,1.74-20.45,5.16-30.44,3.37-9.84,8.17-18.62,14.26-26.09,5.95-7.31,13.01-13.04,21.6-17.54,8.09-4.24,17.05-6.3,27.38-6.3,8.08,0,15.25,1.25,21.32,3.72,5.85,2.39,10.54,5.5,14.32,9.5,3.85,4.08,6.71,8.8,8.74,14.4,2.14,5.92,3.22,12.47,3.22,19.45,0,10.56-1.74,20.97-5.16,30.95-3.37,9.83-8.17,18.6-14.27,26.1-5.93,7.27-12.87,12.91-21.22,17.21-7.95,4.1-16.85,6.09-27.23,6.09h0Z"/><path class="cls-1" d="M1450.21,49.98c47.49,0,83.8,9.88,108.94,29.64,25.13,19.76,37.7,46.98,37.7,81.64,0,23.58-3.9,44.03-11.7,61.36-7.8,17.34-19.16,31.55-34.06,42.64-14.91,11.1-32.94,19.33-54.08,24.7-21.15,5.38-45.24,8.06-72.28,8.06h-35.36l-21.84,120.12h-119.6l65-368.16h137.28m-45.24,157.56h19.24c16.64,0,29.64-2.77,39-8.32,9.36-5.54,14.04-14.21,14.04-26,0-11.09-3.82-18.72-11.44-22.88-7.63-4.16-18.03-6.24-31.2-6.24h-18.2l-11.44,63.44m45.24-177.56h-137.28c-9.7,0-18.01,6.97-19.7,16.52l-65,368.16c-1.03,5.82,.57,11.8,4.37,16.33s9.41,7.15,15.32,7.15h119.6c9.67,0,17.95-6.91,19.68-16.42l18.85-103.7h18.67c28.59,0,54.57-2.92,77.21-8.68,23.59-5.99,44.15-15.43,61.09-28.04,17.6-13.1,31.18-30.09,40.36-50.48,8.93-19.84,13.46-43.25,13.46-69.57,0-40.95-15.25-73.71-45.34-97.36-14.63-11.5-32.53-20.18-53.2-25.81-19.78-5.38-42.7-8.11-68.1-8.11h0Zm-17.08,134.12h1.48c12.12,0,18.45,2.07,21.63,3.8,.12,.06,.18,.11,.21,.13,.23,.35,.8,1.94,.8,5.19,0,5.82-1.83,7.37-4.23,8.79-3.82,2.27-11.02,4.92-24.1,5.44l4.21-23.35h0Z"/></g><text class="cls-2" transform="translate(806.25 912.68)"><tspan x="0" y="0">BOI</tspan></text><g><path d="M1043.37,544.52c12.82,0,25.65,1.39,38.48,4.17,12.82,2.78,24.44,7.38,34.84,13.8,10.4,6.43,18.8,14.76,25.22,25,6.41,10.25,9.62,22.83,9.62,37.76,0,25.35-7.02,45.93-21.06,61.73-14.04,15.8-31.81,26.66-53.3,32.56v1.04c8.32,1.73,16.2,4.67,23.66,8.82,7.45,4.16,14.04,9.61,19.76,16.36,5.72,6.75,10.22,14.62,13.52,23.63,3.29,9,4.94,18.87,4.94,29.59,0,18.69-3.9,35.13-11.7,49.32-7.8,14.19-18.72,26.05-32.76,35.57-14.04,9.52-30.77,16.7-50.18,21.55-19.42,4.84-40.56,7.26-63.44,7.26h-171.08l65-368.16h168.48m-82.16,144.04h33.28c4.5,0,9.1-.35,13.78-1.05,4.68-.7,8.92-2.1,12.74-4.21,3.81-2.1,6.93-4.99,9.36-8.66,2.42-3.67,3.64-8.49,3.64-14.45,0-8.05-3.21-13.83-9.62-17.33-6.42-3.5-14.65-5.26-24.7-5.26h-30.16l-8.32,50.96m-22.88,130.52h30.68c6.58,0,13-.43,19.24-1.3,6.24-.86,11.7-2.42,16.38-4.68,4.68-2.25,8.4-5.37,11.18-9.36,2.77-3.98,4.16-9.1,4.16-15.34,0-7.97-3.12-14.12-9.36-18.46-6.24-4.33-15.26-6.5-27.04-6.5h-35.36l-9.88,55.64m105.04-294.56h-168.48c-9.7,0-18.01,6.97-19.7,16.52l-65,368.16c-1.03,5.82,.57,11.8,4.37,16.33,3.8,4.53,9.41,7.15,15.32,7.15h171.08c24.4,0,47.37-2.64,68.28-7.86,21.61-5.39,40.64-13.6,56.57-24.4,16.62-11.27,29.76-25.57,39.06-42.49,9.4-17.1,14.17-36.94,14.17-58.95,0-13.02-2.07-25.29-6.16-36.46-4.1-11.19-9.83-21.18-17.04-29.69-3.96-4.67-8.29-8.88-12.95-12.61,8.24-5.69,15.76-12.35,22.52-19.96,17.32-19.49,26.11-44.73,26.11-75.01,0-18.67-4.26-34.94-12.66-48.37-8.05-12.83-18.7-23.4-31.66-31.41-12.31-7.6-26.14-13.09-41.12-16.34-14.16-3.07-28.53-4.62-42.72-4.62h0Zm-56.84,133.08h13.16c6.02,0,10.94,.83,14.32,2.41,0,.06,0,.12,0,.18,0,2.28-.33,3.32-.41,3.56-.61,.89-1.31,1.53-2.22,2.03-1.76,.97-3.74,1.61-6.05,1.95-3.68,.55-7.32,.83-10.83,.83h-9.75l1.79-10.96h0Zm-21.56,125.84h18.6c10.3,0,14.37,2.05,15.64,2.93,.43,.3,.59,.49,.6,.51h0s.16,.43,.16,1.52c0,2.94-.57,3.91-.58,3.92-.54,.77-1.42,1.79-3.43,2.75-2.8,1.35-6.31,2.32-10.45,2.89-5.31,.74-10.85,1.11-16.51,1.11h-6.82l2.78-15.64h0Z"/><path d="M1404.77,535.16c29.81,0,56.07,4.08,78.78,12.22,22.7,8.15,41.77,19.68,57.2,34.58,15.42,14.91,27.12,32.59,35.1,53.04,7.97,20.46,11.96,42.99,11.96,67.6,0,30.51-5.29,59.11-15.86,85.8-10.58,26.7-25.66,49.92-45.24,69.68-19.59,19.76-43.16,35.36-70.72,46.8-27.56,11.44-58.33,17.16-92.3,17.16-29.47,0-55.56-4.08-78.26-12.22-22.71-8.14-41.78-19.67-57.2-34.58-15.43-14.9-27.13-32.58-35.1-53.04-7.98-20.45-11.96-42.98-11.96-67.6,0-30.5,5.37-59.1,16.12-85.8,10.74-26.69,25.82-49.92,45.24-69.68,19.41-19.76,42.9-35.36,70.46-46.8,27.56-11.44,58.15-17.16,91.78-17.16m-30.16,276.64c13.52,0,25.65-2.77,36.4-8.32,10.74-5.54,19.93-13,27.56-22.36,7.62-9.36,13.52-20.1,17.68-32.24,4.16-12.13,6.24-24.61,6.24-37.44,0-9.36-1.48-18.11-4.42-26.26-2.95-8.14-7.28-15.25-13-21.32-5.72-6.06-12.83-10.83-21.32-14.3-8.5-3.46-18.12-5.2-28.86-5.2-13.52,0-25.74,2.86-36.66,8.58-10.92,5.72-20.2,13.26-27.82,22.62-7.63,9.36-13.52,20.11-17.68,32.24-4.16,12.14-6.24,24.44-6.24,36.92,0,9.36,1.47,18.12,4.42,26.26,2.94,8.15,7.28,15.26,13,21.32,5.72,6.07,12.82,10.84,21.32,14.3,8.49,3.47,18.28,5.2,29.38,5.2m30.16-296.64c-36.12,0-69.58,6.29-99.45,18.69-29.92,12.42-55.85,29.67-77.06,51.26-21.18,21.55-37.84,47.2-49.53,76.23-11.66,28.95-17.57,60.33-17.57,93.27,0,27.01,4.48,52.2,13.33,74.87,8.99,23.06,22.39,43.31,39.84,60.16,17.4,16.82,39.05,29.95,64.34,39.02,24.78,8.89,53.38,13.39,85.01,13.39,36.46,0,70.09-6.29,99.97-18.69,29.89-12.41,55.88-29.63,77.26-51.19,21.41-21.6,38.1-47.3,49.63-76.39,11.46-28.93,17.27-60.28,17.27-93.17,0-26.98-4.48-52.17-13.32-74.86-9-23.07-22.4-43.3-39.83-60.16-17.42-16.82-39.06-29.95-64.34-39.03-24.8-8.89-53.57-13.4-85.54-13.4h0Zm-30.16,276.64c-8.45,0-15.78-1.25-21.81-3.71-5.88-2.39-10.56-5.5-14.33-9.5-3.87-4.1-6.73-8.81-8.74-14.39-2.15-5.93-3.23-12.47-3.23-19.47,0-10.21,1.74-20.45,5.16-30.44,3.37-9.84,8.17-18.62,14.26-26.09,5.95-7.31,13.01-13.04,21.6-17.54,8.09-4.24,17.04-6.3,27.38-6.3,8.08,0,15.25,1.25,21.32,3.72,5.85,2.39,10.54,5.5,14.32,9.5,3.85,4.08,6.71,8.8,8.74,14.41,2.14,5.92,3.22,12.47,3.22,19.45,0,10.56-1.74,20.97-5.16,30.95-3.37,9.82-8.17,18.6-14.27,26.1-5.93,7.27-12.87,12.91-21.22,17.21-7.95,4.1-16.85,6.09-27.23,6.09h0Z"/><path d="M1788,544.52l-65,368.16h-121.16l65-368.16h121.16m0-20h-121.16c-9.7,0-18.01,6.97-19.7,16.52l-65,368.16c-1.03,5.82,.57,11.8,4.37,16.33,3.8,4.53,9.41,7.15,15.32,7.15h121.16c9.7,0,18.01-6.97,19.7-16.52l65-368.16c1.03-5.82-.57-11.8-4.37-16.33-3.8-4.53-9.41-7.15-15.32-7.15h0Zm0,40h0Z"/></g></g></svg>